<?xml version="1.0" encoding="UTF-8"?>
<svg version="1.1" xmlns="http://www.w3.org/2000/svg" width="500" height="500">
<path d="M0 0 C165 0 330 0 500 0 C500 165 500 330 500 500 C335 500 170 500 0 500 C0 335 0 170 0 0 Z " fill="#FEFEFE" transform="translate(0,0)"/>
<path d="M0 0 C4.37308202 1.68195462 6.26119595 3.34826127 9 7 C10.96752828 8.06246527 12.96587579 9.07137808 15 10 C16.61342975 11.61342975 16.28653648 13.33389983 16.375 15.5625 C16.32550407 21.35352336 14.3001961 24.43488723 11 29 C10.34064669 30.22196752 9.69409614 31.45095736 9.0625 32.6875 C6.22906559 37.23816739 3.20203016 40.26598995 -2 42 C-3.89470816 42.0685495 -5.7916834 42.08480372 -7.6875 42.0625 C-8.68136719 42.05347656 -9.67523438 42.04445312 -10.69921875 42.03515625 C-11.83810547 42.01775391 -11.83810547 42.01775391 -13 42 C-13.81674796 43.74802146 -14.62823451 45.49850189 -15.4375 47.25 C-15.88996094 48.22453125 -16.34242188 49.1990625 -16.80859375 50.203125 C-18.44075188 54.03468309 -19.13174721 57.09516769 -19.0625 61.25 C-19.041875 62.4875 -19.02125 63.725 -19 65 C-18.63648438 64.39671875 -18.27296875 63.7934375 -17.8984375 63.171875 C-12.2876377 54.25214198 -12.2876377 54.25214198 -7 52 C-1.58379061 51.50497011 3.75031475 51.45523616 9 53 C8.61777459 59.11560654 4.58389692 63.69828454 0.17578125 67.625 C-4.54258171 70.99389201 -8.08689453 71.40509959 -13.80078125 70.6875 C-16.16321173 70.7782649 -16.16321173 70.7782649 -17.61425781 72.85742188 C-19.63059445 77.43005844 -19.40195527 81.64964908 -19.37109375 86.59375 C-19.38847153 88.69661625 -19.40605596 90.7994808 -19.42382812 92.90234375 C-19.43391148 96.20722533 -19.43749382 99.51199818 -19.43579102 102.81689453 C-19.43935938 106.01367511 -19.46669145 109.20961834 -19.49609375 112.40625 C-19.48791122 113.39282593 -19.4797287 114.37940186 -19.47129822 115.39587402 C-19.51823379 119.7195048 -19.56390224 122.28173492 -21.84399414 126.03710938 C-25.25842279 129.14570482 -27.28624193 130.25030322 -31.83520508 130.33813477 C-32.81664993 130.36057755 -33.79809479 130.38302032 -34.8092804 130.40614319 C-35.86866318 130.41778 -36.92804596 130.42941681 -38.01953125 130.44140625 C-39.11085861 130.45517807 -40.20218597 130.46894989 -41.32658386 130.48313904 C-43.63734865 130.50642486 -45.9481808 130.52368321 -48.2590332 130.53540039 C-51.78917373 130.56232211 -55.31631764 130.63722044 -58.84570312 130.71289062 C-61.09112567 130.72954817 -63.3365719 130.74331451 -65.58203125 130.75390625 C-67.16199638 130.79868858 -67.16199638 130.79868858 -68.77388 130.84437561 C-73.52109069 130.81598213 -77.11060733 130.67211084 -80.66821289 127.30273438 C-84.40341298 121.95179178 -83.81844996 115.67538378 -83.7265625 109.40234375 C-83.72755951 108.09471573 -83.72855652 106.78708771 -83.72958374 105.43983459 C-83.72940504 102.6816647 -83.70870505 99.92467317 -83.67236328 97.16674805 C-83.62694175 93.64372752 -83.62591501 90.12242178 -83.63939857 86.5991888 C-83.64771294 83.22088056 -83.62371991 79.84309311 -83.6015625 76.46484375 C-83.60338531 75.20534409 -83.60520813 73.94584442 -83.60708618 72.6481781 C-83.47754809 64.64244329 -82.66932693 61.01437831 -77.296875 55.13671875 C-73.69657087 53.35493558 -70.20292873 53.68466897 -66.25 53.8125 C-65.45722656 53.82603516 -64.66445312 53.83957031 -63.84765625 53.85351562 C-61.89814436 53.88874777 -59.94898374 53.94255179 -58 54 C-58 51.69 -58 49.38 -58 47 C-59.175625 46.814375 -59.175625 46.814375 -60.375 46.625 C-63 46 -63 46 -65 44 C-65.22552238 41.30837575 -65.3243329 38.75330256 -65.3125 36.0625 C-65.32861328 35.33353516 -65.34472656 34.60457031 -65.36132812 33.85351562 C-65.36622033 28.51612169 -65.36622033 28.51612169 -63.78979492 26.29443359 C-60.16022912 23.66942229 -55.31360266 24.53223876 -51 24.5625 C-49.4840625 24.5325293 -49.4840625 24.5325293 -47.9375 24.50195312 C-46.968125 24.50259766 -45.99875 24.50324219 -45 24.50390625 C-44.113125 24.50205322 -43.22625 24.5002002 -42.3125 24.49829102 C-40 25 -40 25 -38.21240234 26.80810547 C-36.41113694 30.0646018 -36.60336285 32.87336541 -36.625 36.5625 C-36.61339844 37.23474609 -36.60179687 37.90699219 -36.58984375 38.59960938 C-36.60692672 41.46670094 -36.6930429 43.52638214 -38.2734375 45.96484375 C-40 47 -40 47 -44 47 C-44 49.31 -44 51.62 -44 54 C-42.99839844 53.95359375 -41.99679688 53.9071875 -40.96484375 53.859375 C-27.84530491 53.4378108 -27.84530491 53.4378108 -22 58 C-23.36396545 54.79228225 -24.74029272 53.2532369 -27.5625 51.25 C-30.4918692 48.87976351 -31.49894856 47.38591085 -31.9375 43.625 C-31.958125 42.42875 -31.97875 41.2325 -32 40 C-28.43101431 40.29741547 -27.25601345 40.71472787 -24.8125 43.4375 C-24.214375 44.283125 -23.61625 45.12875 -23 46 C-22.34 46.66 -21.68 47.32 -21 48 C-19.35 45.03 -17.7 42.06 -16 39 C-17.32 38.34 -18.64 37.68 -20 37 C-23.72484992 33.6137728 -25.35042328 31.39216936 -25.625 26.3125 C-25.38929841 21.09563822 -23.43277324 17.15714399 -21.10546875 12.5546875 C-19.61664218 9.1140777 -19.76452527 6.68910411 -20 3 C-18 1 -18 1 -15.90625 0.83984375 C-15.1121875 0.87207031 -14.318125 0.90429688 -13.5 0.9375 C-8.73935701 1.11525128 -4.8969925 -0.32646617 0 0 Z " fill="#AE8C60" transform="translate(288,110)"/>
<path d="M0 0 C1.26679092 -0.01441132 1.26679092 -0.01441132 2.55917358 -0.02911377 C3.92327866 -0.03548859 3.92327866 -0.03548859 5.31494141 -0.04199219 C6.25326813 -0.04769226 7.19159485 -0.05339233 8.15835571 -0.05926514 C10.14380771 -0.06871113 12.12927536 -0.07524753 14.11474609 -0.07910156 C17.14790254 -0.08880766 20.18038147 -0.11983505 23.21337891 -0.15136719 C25.14306239 -0.15789742 27.07275071 -0.16314781 29.00244141 -0.16699219 C29.90779633 -0.17933899 30.81315125 -0.19168579 31.74594116 -0.20440674 C36.57002993 -0.18739095 39.91638863 -0.04760926 43.79150391 3.16113281 C47.0331046 8.02353385 46.20129992 13.38237745 46.22900391 19.09863281 C46.261875 20.29166016 46.29474609 21.4846875 46.32861328 22.71386719 C46.33570313 23.86048828 46.34279297 25.00710937 46.35009766 26.18847656 C46.36355225 27.23769287 46.37700684 28.28690918 46.39086914 29.36791992 C45.79150391 32.16113281 45.79150391 32.16113281 43.39331055 34.48754883 C38.09931807 37.89285224 31.92596131 37.67940494 25.79150391 37.16113281 C20.23153203 35.83134669 15.19803902 32.91905945 10.18603516 30.24707031 C5.11403863 27.94688265 0.25960093 27.97886291 -5.20849609 28.16113281 C-7.14559799 30.09823471 -6.39573989 33.72913024 -6.41162109 36.37207031 C-6.41732117 37.09600983 -6.42302124 37.81994934 -6.42889404 38.56582642 C-6.43835729 40.10083549 -6.44488327 41.63586501 -6.44873047 43.17089844 C-6.4584277 45.51956707 -6.48943339 47.86735762 -6.52099609 50.21582031 C-6.52752678 51.70539844 -6.532777 53.19498283 -6.53662109 54.68457031 C-6.5489679 55.38778412 -6.5613147 56.09099792 -6.57403564 56.81552124 C-6.60262539 60.58463417 -6.60262539 60.58463417 -4.93302917 63.84550476 C-1.87477966 66.17861098 1.99321548 65.6075539 5.69384766 65.59472656 C6.56795792 65.59996841 7.44206818 65.60521027 8.34266663 65.61061096 C10.1910801 65.6170334 12.03953443 65.61569129 13.88793945 65.60717773 C16.71525974 65.59867415 19.54055551 65.62741429 22.36767578 65.65917969 C24.16389913 65.66079196 25.96012606 65.66021367 27.75634766 65.65722656 C28.60124252 65.66846054 29.44613739 65.67969452 30.31663513 65.69126892 C34.05528849 65.64692126 36.15861024 65.5849985 39.31811523 63.46899414 C41.08790133 60.69686689 41.32808643 59.01491921 41.40087891 55.73925781 C41.43310547 54.71445313 41.46533203 53.68964844 41.49853516 52.63378906 C41.51271484 51.5703125 41.52689453 50.50683594 41.54150391 49.41113281 C41.57115234 48.3321875 41.60080078 47.25324219 41.63134766 46.14160156 C41.70197326 43.48137037 41.75470587 40.82201179 41.79150391 38.16113281 C43.11150391 37.50113281 44.43150391 36.84113281 45.79150391 36.16113281 C45.937088 40.70246078 46.02567724 45.24318622 46.10400391 49.78613281 C46.14589844 51.07132813 46.18779297 52.35652344 46.23095703 53.68066406 C46.24707031 54.92460937 46.26318359 56.16855469 46.27978516 57.45019531 C46.30596924 58.59182129 46.33215332 59.73344727 46.35913086 60.90966797 C45.77338674 64.26491109 44.90935081 66.49612143 42.55635071 69.01025391 C38.77796239 71.47418869 34.30553331 70.98874527 29.94384766 70.92285156 C28.37057457 70.92790459 28.37057457 70.92790459 26.76551819 70.93305969 C24.55236904 70.93276118 22.33917834 70.91754348 20.1262207 70.88842773 C16.73667514 70.84872267 13.35103637 70.86773236 9.96142578 70.89355469 C7.80971788 70.8859964 5.65801867 70.87504378 3.50634766 70.86035156 C2.49273666 70.86733566 1.47912567 70.87431976 0.43479919 70.8815155 C-0.50975632 70.86252701 -1.45431183 70.84353851 -2.42749023 70.82397461 C-3.25624161 70.81698044 -4.08499298 70.80998627 -4.93885803 70.80278015 C-8.3379395 69.84182888 -9.39206094 68.12394193 -11.20849609 65.16113281 C-11.71643066 62.3536377 -11.71643066 62.3536377 -11.72607422 59.25683594 C-11.73868286 58.09212769 -11.7512915 56.92741943 -11.76428223 55.72741699 C-11.7561853 54.47835571 -11.74808838 53.22929443 -11.73974609 51.94238281 C-11.743573 50.65174927 -11.7473999 49.36111572 -11.75134277 48.03137207 C-11.75722729 45.30441052 -11.74870985 42.57797448 -11.72998047 39.85107422 C-11.70719012 36.363845 -11.72031902 32.87784724 -11.74427032 29.39066315 C-11.762239 26.05363887 -11.74964093 22.71694203 -11.73974609 19.37988281 C-11.74784302 18.13082153 -11.75593994 16.88176025 -11.76428223 15.59484863 C-11.75167358 14.43014038 -11.73906494 13.26543213 -11.72607422 12.06542969 C-11.72289185 11.04348511 -11.71970947 10.02154053 -11.71643066 8.96862793 C-11.07140006 5.40336504 -9.7266803 3.72410375 -7.20849609 1.16113281 C-4.47300853 0.24930363 -2.81951371 0.02594046 0 0 Z " fill="#FCFBFA" transform="translate(219.20849609375,166.8388671875)"/>
<path d="M0 0 C1.5159375 -0.0299707 1.5159375 -0.0299707 3.0625 -0.06054688 C4.031875 -0.05990234 5.00125 -0.05925781 6 -0.05859375 C6.886875 -0.06044678 7.77375 -0.0622998 8.6875 -0.06420898 C11 0.4375 11 0.4375 12.78759766 2.24560547 C14.58886306 5.5021018 14.39663715 8.31086541 14.375 12 C14.38660156 12.67224609 14.39820313 13.34449219 14.41015625 14.03710938 C14.39307328 16.90420094 14.3069571 18.96388214 12.7265625 21.40234375 C11 22.4375 11 22.4375 7 22.4375 C7 24.7475 7 27.0575 7 29.4375 C8.50240234 29.36789063 8.50240234 29.36789063 10.03515625 29.296875 C23.15469509 28.8753108 23.15469509 28.8753108 29 33.4375 C28.67 35.0875 28.34 36.7375 28 38.4375 C27.401875 37.798125 26.80375 37.15875 26.1875 36.5 C23.17427514 33.65895942 20.77409374 33.31300833 16.79150391 33.27636719 C15.52471298 33.26195587 15.52471298 33.26195587 14.23233032 33.24725342 C13.32292694 33.24300354 12.41352356 33.23875366 11.4765625 33.234375 C10.06907242 33.22582489 10.06907242 33.22582489 8.63314819 33.21710205 C6.64769619 33.20765606 4.66222854 33.20111966 2.67675781 33.19726562 C-0.35639864 33.18755952 -3.38887756 33.15653214 -6.421875 33.125 C-8.35155848 33.11846977 -10.2812468 33.11321938 -12.2109375 33.109375 C-13.11629242 33.0970282 -14.02164734 33.0846814 -14.95443726 33.07196045 C-19.7765849 33.08896939 -23.11241349 33.23985062 -27 36.4375 C-28.31815472 39.07380944 -28.14159211 41.06474373 -28.16113281 44.01708984 C-28.17074036 45.18525238 -28.1803479 46.35341492 -28.19024658 47.55697632 C-28.19449646 48.82465851 -28.19874634 50.0923407 -28.203125 51.3984375 C-28.20882507 52.69568756 -28.21452515 53.99293762 -28.22039795 55.32949829 C-28.23090675 58.07839348 -28.23675012 60.82725943 -28.24023438 63.57617188 C-28.24571751 67.09583895 -28.26974158 70.61511885 -28.29820633 74.13466454 C-28.32132895 77.49341496 -28.32328215 80.85211157 -28.328125 84.2109375 C-28.3404718 85.47457123 -28.3528186 86.73820496 -28.36553955 88.04013062 C-28.36253845 89.21459747 -28.35953735 90.38906433 -28.35644531 91.59912109 C-28.36191376 93.1489418 -28.36191376 93.1489418 -28.36749268 94.73007202 C-27.93880547 97.88833835 -27.31498144 99.25412225 -25 101.4375 C-22.82889987 102.03098772 -22.82889987 102.03098772 -20.37670898 101.93579102 C-19.44241562 101.94582657 -18.50812225 101.95586212 -17.54551697 101.96620178 C-16.03605247 101.95392799 -16.03605247 101.95392799 -14.49609375 101.94140625 C-12.94475487 101.9555381 -12.94475487 101.9555381 -11.36207581 101.96995544 C-8.05368295 101.9986831 -4.74600779 102.00168005 -1.4375 102 C1.87447352 102.00359815 5.18592411 102.01302077 8.49778748 102.04075623 C10.55994494 102.05764935 12.6222753 102.06033935 14.6844635 102.04774475 C15.61560471 102.05462814 16.54674591 102.06151154 17.50610352 102.06860352 C18.32756363 102.06764175 19.14902374 102.06667999 19.99537659 102.06568909 C20.65690231 102.18838669 21.31842804 102.31108429 22 102.4375 C22.99 103.9225 22.99 103.9225 24 105.4375 C16.98948142 105.61524751 9.97954528 105.73768159 2.96728516 105.82202148 C0.58294969 105.85718533 -1.80123526 105.90492616 -4.18505859 105.96557617 C-7.61593769 106.05066884 -11.04481937 106.09023044 -14.4765625 106.12109375 C-16.07064438 106.17528725 -16.07064438 106.17528725 -17.69692993 106.23057556 C-22.4687328 106.23309702 -26.09455135 106.13577482 -29.67480469 102.74462891 C-33.40072251 97.39022214 -32.81842945 91.11148306 -32.7265625 84.83984375 C-32.72755951 83.53221573 -32.72855652 82.22458771 -32.72958374 80.87733459 C-32.72940504 78.1191647 -32.70870505 75.36217317 -32.67236328 72.60424805 C-32.62694175 69.08122752 -32.62591501 65.55992178 -32.63939857 62.0366888 C-32.64771294 58.65838056 -32.62371991 55.28059311 -32.6015625 51.90234375 C-32.60338531 50.64284409 -32.60520813 49.38334442 -32.60708618 48.0856781 C-32.47754809 40.07994329 -31.66932693 36.45187831 -26.296875 30.57421875 C-22.69657087 28.79243558 -19.20292873 29.12216897 -15.25 29.25 C-14.45722656 29.26353516 -13.66445312 29.27707031 -12.84765625 29.29101562 C-10.89814436 29.32624777 -8.94898374 29.38005179 -7 29.4375 C-7 27.1275 -7 24.8175 -7 22.4375 C-7.78375 22.31375 -8.5675 22.19 -9.375 22.0625 C-12 21.4375 -12 21.4375 -14 19.4375 C-14.22552238 16.74587575 -14.3243329 14.19080256 -14.3125 11.5 C-14.32861328 10.77103516 -14.34472656 10.04207031 -14.36132812 9.29101562 C-14.36622033 3.95362169 -14.36622033 3.95362169 -12.78979492 1.73193359 C-9.16022912 -0.89307771 -4.31360266 -0.03026124 0 0 Z " fill="#AD8D61" transform="translate(237,134.5625)"/>
<path d="M0 0 C6.46688275 -0.29893808 11.50090993 -0.48131236 17.25 2.875 C25.81729475 7.53710021 33.35005492 8.44857457 43 9 C43.02895225 12.29164829 43.0467823 15.58326399 43.0625 18.875 C43.07087891 19.81214844 43.07925781 20.74929687 43.08789062 21.71484375 C43.09111328 22.61074219 43.09433594 23.50664062 43.09765625 24.4296875 C43.10289307 25.25710449 43.10812988 26.08452148 43.11352539 26.93701172 C43 29 43 29 42 31 C36.17928378 31.02464638 30.35859766 31.0428343 24.5378418 31.05493164 C22.55606559 31.05997267 20.57429311 31.06680538 18.5925293 31.07543945 C15.75047891 31.08751515 12.90847753 31.09323045 10.06640625 31.09765625 C8.72891075 31.10539818 8.72891075 31.10539818 7.36439514 31.11329651 C5.24259399 31.11349177 3.1208922 31.0621003 1 31 C0 30 0 30 -0.11352539 27.13256836 C-0.10828857 25.88096924 -0.10305176 24.62937012 -0.09765625 23.33984375 C-0.0962413 22.67537735 -0.09482635 22.01091095 -0.09336853 21.3263092 C-0.08775518 19.19666101 -0.07520054 17.06711661 -0.0625 14.9375 C-0.05748671 13.49674631 -0.05292351 12.05599097 -0.04882812 10.61523438 C-0.03778145 7.07678898 -0.02050792 3.53840461 0 0 Z " fill="#FEFEFD" transform="translate(215,198)"/>
<path d="M0 0 C4.37308202 1.68195462 6.26119595 3.34826127 9 7 C10.96752828 8.06246527 12.96587579 9.07137808 15 10 C16 11 16 11 16.25 13.4375 C16.1675 14.283125 16.085 15.12875 16 16 C13 18 13 18 11 18 C8.77448237 18.961149 6.56845972 19.96778366 4.375 21 C3.18648438 21.556875 1.99796875 22.11375 0.7734375 22.6875 C-0.14179688 23.120625 -1.05703125 23.55375 -2 24 C-2 22.68 -2 21.36 -2 20 C0.84610101 17.86542424 3.508067 16.64665426 7 16 C6.67 15.67 6.34 15.34 6 15 C5.01 15 4.02 15 3 15 C3.33 12.03 3.66 9.06 4 6 C-0.23929615 3.88035192 -2.35899787 3.65622206 -7 4 C-9.28728734 5.83883881 -9.28728734 5.83883881 -9.125 8.625 C-9.08375 9.40875 -9.0425 10.1925 -9 11 C-9.99 10.67 -10.98 10.34 -12 10 C-12 8.35 -12 6.7 -12 5 C-13.32 5 -14.64 5 -16 5 C-15.6390625 5.88042969 -15.278125 6.76085937 -14.90625 7.66796875 C-14.4421875 8.82941406 -13.978125 9.99085937 -13.5 11.1875 C-13.0359375 12.33605469 -12.571875 13.48460938 -12.09375 14.66796875 C-11.09194348 17.71990077 -10.76129196 19.83115072 -11 23 C-11.33 23 -11.66 23 -12 23 C-12.66 27.62 -13.32 32.24 -14 37 C-14.66 37 -15.32 37 -16 37 C-16 37.66 -16 38.32 -16 39 C-20.07925658 37.48916423 -22.99046474 34.82128162 -25 31 C-26.54950889 23.97801922 -24.24116943 18.75582106 -21.10546875 12.5546875 C-19.61664218 9.1140777 -19.76452527 6.68910411 -20 3 C-18 1 -18 1 -15.90625 0.83984375 C-14.71515625 0.88818359 -14.71515625 0.88818359 -13.5 0.9375 C-8.73935701 1.11525128 -4.8969925 -0.32646617 0 0 Z " fill="#AF8F65" transform="translate(288,110)"/>
<path d="M0 0 C2.39763185 2.39763185 2.34280586 3.33273498 2.625 6.625 C2.69976562 7.44226563 2.77453125 8.25953125 2.8515625 9.1015625 C2.92503906 10.04128906 2.92503906 10.04128906 3 11 C3.928125 10.938125 4.85625 10.87625 5.8125 10.8125 C9 11 9 11 10.59375 12.25 C12.14380272 14.17895449 12.88418948 15.85407421 13.6875 18.1875 C13.93886719 18.90292969 14.19023437 19.61835938 14.44921875 20.35546875 C14.63097656 20.89816406 14.81273437 21.44085938 15 22 C17.31 22 19.62 22 22 22 C21.7525 20.9275 21.505 19.855 21.25 18.75 C21 15 21 15 22.4375 12.5625 C26.1239718 10.31465134 28.72573289 10.71504886 33 11 C32.67 12.65 32.34 14.3 32 16 C30.68 16.33 29.36 16.66 28 17 C28.33 16.34 28.66 15.68 29 15 C29.66 15 30.32 15 31 15 C31 14.01 31 13.02 31 12 C28.36 12.66 25.72 13.32 23 14 C22.67 15.65 22.34 17.3 22 19 C23.41702513 18.85769192 24.8336096 18.71099254 26.25 18.5625 C27.03890625 18.48128906 27.8278125 18.40007812 28.640625 18.31640625 C30.82364639 18.02365007 32.8773182 17.57935581 35 17 C34.7215625 17.9590625 34.7215625 17.9590625 34.4375 18.9375 C34.293125 19.618125 34.14875 20.29875 34 21 C35.12534105 22.35618499 35.12534105 22.35618499 38.0625 22.0625 C39.5165625 22.0315625 39.5165625 22.0315625 41 22 C43.25169623 17.43253488 43.42423979 13.17722773 43.625 8.1875 C43.66367187 7.39923828 43.70234375 6.61097656 43.7421875 5.79882812 C43.83588844 3.8662462 43.91900779 1.93315624 44 0 C44.33 0 44.66 0 45 0 C45.04898438 1.07378906 45.09796875 2.14757812 45.1484375 3.25390625 C45.22353398 4.69012642 45.29907876 6.12632319 45.375 7.5625 C45.4059375 8.26697266 45.436875 8.97144531 45.46875 9.69726562 C45.72952558 14.41295741 46.54658123 18.50385496 48 23 C48.99 22.67 49.98 22.34 51 22 C52.05086948 19.23633753 52.11860688 16.60496259 52.09765625 13.671875 C52.09443359 12.87265625 52.09121094 12.0734375 52.08789062 11.25 C52.07951172 10.425 52.07113281 9.6 52.0625 8.75 C52.05798828 7.90953125 52.05347656 7.0690625 52.04882812 6.203125 C52.03707961 4.13538599 52.01914522 2.06768376 52 0 C52.99 0.495 52.99 0.495 54 1 C54.08703823 4.43734063 54.14040272 7.87439837 54.1875 11.3125 C54.21263672 12.28896484 54.23777344 13.26542969 54.26367188 14.27148438 C54.27333984 15.20927734 54.28300781 16.14707031 54.29296875 17.11328125 C54.3086792 17.97735596 54.32438965 18.84143066 54.34057617 19.73168945 C54 22 54 22 52.6105957 23.81323242 C51 25 51 25 48.9375 24.875 C47 24 47 24 45 21 C44.2265625 22.0209375 44.2265625 22.0209375 43.4375 23.0625 C41 25 41 25 37.375 24.875 C34 24 34 24 32 22 C28.77585991 22.29310364 26.0868069 22.96675481 23.0625 24.125 C18.3874634 25.46072474 14.53572447 24.51190816 10 23 C9.34 23.33 8.68 23.66 8 24 C5.6670134 24.04022391 3.33293334 24.04320247 1 24 C1 24.66 1 25.32 1 26 C-2.3 25.67 -5.6 25.34 -9 25 C-9.66 26.32 -10.32 27.64 -11 29 C-11.66 29.66 -12.32 30.32 -13 31 C-13.99 30.67 -14.98 30.34 -16 30 C-15.175 29.38125 -14.35 28.7625 -13.5 28.125 C-12.675 27.42375 -11.85 26.7225 -11 26 C-11 25.34 -11 24.68 -11 24 C-11.969375 23.4225 -12.93875 22.845 -13.9375 22.25 C-17 20 -17 20 -18.0625 16.9375 C-18 14 -18 14 -16.875 12.125 C-14.36737712 10.62042627 -12.87879197 10.5681812 -10 11 C-8.35546875 12.23046875 -8.35546875 12.23046875 -7 14 C-6.70703125 16.26171875 -6.70703125 16.26171875 -6.8125 18.6875 C-6.83957031 19.49574219 -6.86664063 20.30398438 -6.89453125 21.13671875 C-6.92933594 21.75160156 -6.96414062 22.36648438 -7 23 C-5.02 23 -3.04 23 -1 23 C-0.855625 21.948125 -0.71125 20.89625 -0.5625 19.8125 C0 16 0 16 0.5625 13.625 C1.05553993 10.66676042 0.88529551 8.16439189 0.5625 5.1875 C0.46066406 4.21167969 0.35882813 3.23585938 0.25390625 2.23046875 C0.12822266 1.12638672 0.12822266 1.12638672 0 0 Z " fill="#916F5F" transform="translate(223,266)"/>
<path d="M0 0 C-0.33922468 5.42759492 -3.42926548 9.14981669 -7 13 C-11.86295045 17.2499735 -15.88324686 18.55588912 -22.3125 18.17578125 C-22.869375 18.11777344 -23.42625 18.05976563 -24 18 C-24 17.34 -24 16.68 -24 16 C-25.98 16 -27.96 16 -30 16 C-30 12.7 -30 9.4 -30 6 C-29.67 6 -29.34 6 -29 6 C-28.67 7.98 -28.34 9.96 -28 12 C-27.63648438 11.39671875 -27.27296875 10.7934375 -26.8984375 10.171875 C-20.19715315 -0.48144885 -12.39898524 -3.64850523 0 0 Z " fill="#AC8A5D" transform="translate(297,163)"/>
<path d="M0 0 C0.89460937 -0.00128906 1.78921875 -0.00257813 2.7109375 -0.00390625 C3.65195313 -0.00003906 4.59296875 0.00382813 5.5625 0.0078125 C6.97402344 0.00201172 6.97402344 0.00201172 8.4140625 -0.00390625 C9.75597656 -0.00197266 9.75597656 -0.00197266 11.125 0 C11.95128906 0.00112793 12.77757812 0.00225586 13.62890625 0.00341797 C15.5625 0.1328125 15.5625 0.1328125 16.5625 1.1328125 C16.66159302 3.46441305 16.69220504 5.79911192 16.6875 8.1328125 C16.69136719 10.0509375 16.69136719 10.0509375 16.6953125 12.0078125 C16.5625 15.1328125 16.5625 15.1328125 15.5625 16.1328125 C14.08597336 16.23162047 12.60482764 16.26360495 11.125 16.265625 C9.78308594 16.26755859 9.78308594 16.26755859 8.4140625 16.26953125 C7.47304687 16.26566406 6.53203125 16.26179688 5.5625 16.2578125 C4.15097656 16.26361328 4.15097656 16.26361328 2.7109375 16.26953125 C1.81632813 16.26824219 0.92171875 16.26695312 0 16.265625 C-0.82628906 16.26449707 -1.65257812 16.26336914 -2.50390625 16.26220703 C-4.4375 16.1328125 -4.4375 16.1328125 -5.4375 15.1328125 C-5.53659302 12.80121195 -5.56720504 10.46651308 -5.5625 8.1328125 C-5.56507813 6.8540625 -5.56765625 5.5753125 -5.5703125 4.2578125 C-5.36940424 -0.46944066 -4.30363567 0.0058747 0 0 Z " fill="#F7F4F1" transform="translate(231.4375,137.8671875)"/>
<path d="M0 0 C1.5159375 -0.0299707 1.5159375 -0.0299707 3.0625 -0.06054688 C4.031875 -0.05990234 5.00125 -0.05925781 6 -0.05859375 C7.3303125 -0.06137329 7.3303125 -0.06137329 8.6875 -0.06420898 C11 0.4375 11 0.4375 12.78759766 2.24560547 C14.58886306 5.5021018 14.39663715 8.31086541 14.375 12 C14.38660156 12.67224609 14.39820313 13.34449219 14.41015625 14.03710938 C14.39395679 16.75591947 14.24971394 18.95542675 12.98828125 21.390625 C9.74783144 23.09679504 6.37648662 22.74639343 2.8125 22.625 C2.06291016 22.61146484 1.31332031 22.59792969 0.54101562 22.58398438 C-1.30629767 22.54868539 -3.15324066 22.49487917 -5 22.4375 C-4.81870185 25.87543339 -4.81870185 25.87543339 -4 29.4375 C-2.68 30.0975 -1.36 30.7575 0 31.4375 C-6.6 31.4375 -13.2 31.4375 -20 31.4375 C-20 31.1075 -20 30.7775 -20 30.4375 C-16.04 30.1075 -12.08 29.7775 -8 29.4375 C-7.67 27.1275 -7.34 24.8175 -7 22.4375 C-7.78375 22.31375 -8.5675 22.19 -9.375 22.0625 C-12 21.4375 -12 21.4375 -14 19.4375 C-14.22552238 16.74587575 -14.3243329 14.19080256 -14.3125 11.5 C-14.32861328 10.77103516 -14.34472656 10.04207031 -14.36132812 9.29101562 C-14.36622033 3.95362169 -14.36622033 3.95362169 -12.78979492 1.73193359 C-9.16022912 -0.89307771 -4.31360266 -0.03026124 0 0 Z M-11 4.4375 C-11.09909302 6.76910055 -11.12970504 9.10379942 -11.125 11.4375 C-11.12757813 12.71625 -11.13015625 13.995 -11.1328125 15.3125 C-11.35860893 18.30437244 -11.35860893 18.30437244 -10 19.4375 C-8.52347336 19.53630797 -7.04232764 19.56829245 -5.5625 19.5703125 C-4.22058594 19.57224609 -4.22058594 19.57224609 -2.8515625 19.57421875 C-1.44003906 19.56841797 -1.44003906 19.56841797 0 19.5625 C0.94101563 19.56636719 1.88203125 19.57023437 2.8515625 19.57421875 C3.74617188 19.57292969 4.64078125 19.57164062 5.5625 19.5703125 C6.80193359 19.56862061 6.80193359 19.56862061 8.06640625 19.56689453 C10.00679039 19.65014807 10.00679039 19.65014807 11 18.4375 C11.09909302 16.10589945 11.12970504 13.77120058 11.125 11.4375 C11.12757813 10.15875 11.13015625 8.88 11.1328125 7.5625 C11.35860893 4.57062756 11.35860893 4.57062756 10 3.4375 C8.52347336 3.33869203 7.04232764 3.30670755 5.5625 3.3046875 C4.66789062 3.30339844 3.77328125 3.30210937 2.8515625 3.30078125 C1.44003906 3.30658203 1.44003906 3.30658203 0 3.3125 C-0.94101563 3.30863281 -1.88203125 3.30476562 -2.8515625 3.30078125 C-4.19347656 3.30271484 -4.19347656 3.30271484 -5.5625 3.3046875 C-6.80193359 3.30637939 -6.80193359 3.30637939 -8.06640625 3.30810547 C-10.00679039 3.22485193 -10.00679039 3.22485193 -11 4.4375 Z " fill="#A27B48" transform="translate(237,134.5625)"/>
<path d="M0 0 C2.9375 1.5 2.9375 1.5 5 3 C4.67 4.32 4.34 5.64 4 7 C3.34 7 2.68 7 2 7 C1.7525 7.94875 1.505 8.8975 1.25 9.875 C0 13 0 13 -2.125 14.375 C-2.74375 14.58125 -3.3625 14.7875 -4 15 C-4.99 14.34 -5.98 13.68 -7 13 C-6.67 13.680625 -6.34 14.36125 -6 15.0625 C-4.79846973 18.59199518 -4.65679655 21.2934027 -5 25 C-6.375 26.9375 -6.375 26.9375 -8 28 C-8.66 28 -9.32 28 -10 28 C-10.18175781 26.92621094 -10.36351562 25.85242188 -10.55078125 24.74609375 C-10.80424183 23.30981711 -11.05817328 21.87362352 -11.3125 20.4375 C-11.48942383 19.38079102 -11.48942383 19.38079102 -11.66992188 18.30273438 C-12.31530715 14.71174453 -13.11161909 11.49826474 -14.60546875 8.16015625 C-16 5 -16 5 -16 2 C-14.68 2 -13.36 2 -12 2 C-11.67 3.65 -11.34 5.3 -11 7 C-10.8453125 6.1028125 -10.8453125 6.1028125 -10.6875 5.1875 C-8.90341157 -0.48914502 -5.55925884 -0.57509574 0 0 Z " fill="#AD8B5F" transform="translate(288,113)"/>
<path d="M0 0 C8.3984375 -0.1953125 8.3984375 -0.1953125 11 0 C13 2 13 2 13.25 5 C13 8 13 8 11 10 C11.38766305 13.58588324 12.58566252 16.69987921 14 20 C13.01 20 12.02 20 11 20 C10.4225 18.865625 9.845 17.73125 9.25 16.5625 C7.64507365 13.62689703 7.64507365 13.62689703 4.75 12.0625 C4.1725 12.041875 3.595 12.02125 3 12 C3 14.64 3 17.28 3 20 C2.01 20 1.02 20 0 20 C0 13.4 0 6.8 0 0 Z " fill="#916F5E" transform="translate(240,309)"/>
<path d="M0 0 C-0.33734737 5.39755795 -3.48881427 9.13365986 -7 13 C-8.94248196 14.57415581 -10.81976713 15.75415264 -13 17 C-13.33 16.34 -13.66 15.68 -14 15 C-14.66 14.67 -15.32 14.34 -16 14 C-14.2421875 13.08854167 -12.484375 12.17708333 -10.7265625 11.265625 C-8.66638569 9.75545015 -7.97029572 8.33263012 -7 6 C-7.79664063 6.46792969 -7.79664063 6.46792969 -8.609375 6.9453125 C-9.31578125 7.33460938 -10.0221875 7.72390625 -10.75 8.125 C-11.44609375 8.51945313 -12.1421875 8.91390625 -12.859375 9.3203125 C-15 10 -15 10 -17.265625 9.1171875 C-18.12414062 8.56417969 -18.12414062 8.56417969 -19 8 C-13.375 4.125 -13.375 4.125 -10 3 C-16.14689273 3.36881356 -18.69027374 4.90050429 -23 9 C-22.82424509 5.13339194 -22.42363926 3.43508897 -19.6875 0.625 C-14.11391867 -2.64320706 -5.99210026 -1.76322568 0 0 Z " fill="#AA895C" transform="translate(297,163)"/>
<path d="M0 0 C1.32 0 2.64 0 4 0 C4.83986084 1.93467942 5.67168027 3.87285129 6.5 5.8125 C7.19609375 7.43091797 7.19609375 7.43091797 7.90625 9.08203125 C9 12 9 12 9 15 C9.66 15 10.32 15 11 15 C11.12246094 14.28457031 11.24492187 13.56914062 11.37109375 12.83203125 C12.01135375 9.94887287 12.93551556 7.41407527 14.0625 4.6875 C14.60583984 3.36298828 14.60583984 3.36298828 15.16015625 2.01171875 C15.43730469 1.34785156 15.71445312 0.68398438 16 0 C17.32 0 18.64 0 20 0 C20 6.6 20 13.2 20 20 C19.34 20 18.68 20 18 20 C17.67 15.05 17.34 10.1 17 5 C15.02 9.95 13.04 14.9 11 20 C10.01 19.67 9.02 19.34 8 19 C6.00875435 14.77631557 4.58066141 10.40021961 3 6 C2.67 10.62 2.34 15.24 2 20 C1.34 20 0.68 20 0 20 C0 13.4 0 6.8 0 0 Z " fill="#86604E" transform="translate(294,309)"/>
<path d="M0 0 C-4.91139241 13.09704641 -4.91139241 13.09704641 -11 17 C-13.75078884 17.91692961 -15.35948913 18.10886083 -18.1875 18.0625 C-20.0746875 18.0315625 -20.0746875 18.0315625 -22 18 C-19.05034526 10.99862173 -12.19368367 4.7831393 -5.5 1.375 C-2 0 -2 0 0 0 Z " fill="#F7F5F2" transform="translate(299,131)"/>
<path d="M0 0 C3.96 0 7.92 0 12 0 C12 2.31 12 4.62 12 7 C13.50240234 6.93039063 13.50240234 6.93039063 15.03515625 6.859375 C28.15469509 6.4378108 28.15469509 6.4378108 34 11 C33.67 12.65 33.34 14.3 33 16 C32.443125 15.38125 31.88625 14.7625 31.3125 14.125 C26.30116702 9.51999132 20.97415876 9.66854625 14.5 9.5 C4.40206186 9.2371134 4.40206186 9.2371134 0 7 C0 4.69 0 2.38 0 0 Z " fill="#A78151" transform="translate(232,157)"/>
<path d="M0 0 C3.3 0 6.6 0 10 0 C10.99 0.99 11.98 1.98 13 3 C12.875 6.5625 12.875 6.5625 12 10 C8.3558226 12.4294516 6.28758728 12.16179575 2 12 C2 14.64 2 17.28 2 20 C1.34 20 0.68 20 0 20 C0 13.4 0 6.8 0 0 Z " fill="#764B37" transform="translate(207,309)"/>
<path d="M0 0 C3 1 3 1 3.9831543 2.73413086 C4.3994812 3.83833374 4.3994812 3.83833374 4.82421875 4.96484375 C5.28344727 6.16463867 5.28344727 6.16463867 5.75195312 7.38867188 C6.06068359 8.22978516 6.36941406 9.07089844 6.6875 9.9375 C7.00783203 10.77474609 7.32816406 11.61199219 7.65820312 12.47460938 C10 18.68112007 10 18.68112007 10 21 C9.01 21 8.02 21 7 21 C6.34 19.35 5.68 17.7 5 16 C2.03 15.67 -0.94 15.34 -4 15 C-4.33 16.98 -4.66 18.96 -5 21 C-5.99 21 -6.98 21 -8 21 C-2.92307692 2.92307692 -2.92307692 2.92307692 0 0 Z " fill="#805845" transform="translate(176,308)"/>
<path d="M0 0 C1.5159375 -0.0299707 1.5159375 -0.0299707 3.0625 -0.06054688 C4.031875 -0.05990234 5.00125 -0.05925781 6 -0.05859375 C7.3303125 -0.06137329 7.3303125 -0.06137329 8.6875 -0.06420898 C11 0.4375 11 0.4375 12.79418945 2.23901367 C14.56710905 5.47147793 14.31949424 8.60673319 14.1875 12.1875 C14.16719727 13.23357422 14.16719727 13.23357422 14.14648438 14.30078125 C14.1112945 16.01335541 14.05749155 17.72552941 14 19.4375 C13.01 19.1075 12.02 18.7775 11 18.4375 C10.67 13.8175 10.34 9.1975 10 4.4375 C6.70827931 4.41061662 3.41677646 4.3907179 0.125 4.375 C-0.81214844 4.36662109 -1.74929687 4.35824219 -2.71484375 4.34960938 C-3.61074219 4.34638672 -4.50664062 4.34316406 -5.4296875 4.33984375 C-6.25710449 4.33460693 -7.08452148 4.32937012 -7.93701172 4.32397461 C-10.06411757 4.30397862 -10.06411757 4.30397862 -12 5.4375 C-12.47001033 8.71305608 -12.47001033 8.71305608 -12.625 12.5 C-12.69976562 13.79035156 -12.77453125 15.08070313 -12.8515625 16.41015625 C-12.90054688 17.40917969 -12.94953125 18.40820312 -13 19.4375 C-13.33 19.4375 -13.66 19.4375 -14 19.4375 C-14.0809313 16.83271117 -14.14045434 14.23043347 -14.1875 11.625 C-14.22520508 10.51801758 -14.22520508 10.51801758 -14.26367188 9.38867188 C-14.33795137 3.91674912 -14.33795137 3.91674912 -12.79418945 1.72753906 C-9.15605151 -0.88831627 -4.31653526 -0.03028182 0 0 Z " fill="#B3936B" transform="translate(237,134.5625)"/>
<path d="M0 0 C7.24705882 2.14117647 7.24705882 2.14117647 10 5 C10.4375 7.5625 10.4375 7.5625 10 10 C7 12 7 12 5 12 C2.77448237 12.961149 0.56845972 13.96778366 -1.625 15 C-2.81351562 15.556875 -4.00203125 16.11375 -5.2265625 16.6875 C-6.14179688 17.120625 -7.05703125 17.55375 -8 18 C-8 16.68 -8 15.36 -8 14 C-5.15389899 11.86542424 -2.491933 10.64665426 1 10 C0.67 9.67 0.34 9.34 0 9 C-0.99 9 -1.98 9 -3 9 C-2.67 7.02 -2.34 5.04 -2 3 C-1.34 3 -0.68 3 0 3 C0 2.01 0 1.02 0 0 Z " fill="#A78252" transform="translate(294,116)"/>
<path d="M0 0 C3.63 0 7.26 0 11 0 C11.33 0.99 11.66 1.98 12 3 C9.03 3 6.06 3 3 3 C3 4.98 3 6.96 3 9 C5.64 9 8.28 9 11 9 C11 9.99 11 10.98 11 12 C8.36 12 5.72 12 3 12 C3 14.31 3 16.62 3 19 C5.64 19 8.28 19 11 19 C11 19.66 11 20.32 11 21 C7.37 21 3.74 21 0 21 C0 14.07 0 7.14 0 0 Z " fill="#8B6755" transform="translate(224,308)"/>
<path d="M0 0 C2.13804183 1.63497317 2.91293074 2.70812009 3.6875 5.3046875 C4.53821046 12.30178103 4.53821046 12.30178103 1.6875 16 C0.800625 16.66 -0.08625 17.32 -1 18 C-1.66 18.66 -2.32 19.32 -3 20 C-3.99 19.67 -4.98 19.34 -6 19 C-5.175 18.38125 -4.35 17.7625 -3.5 17.125 C-2.675 16.42375 -1.85 15.7225 -1 15 C-1 14.34 -1 13.68 -1 13 C-2.4540625 12.13375 -2.4540625 12.13375 -3.9375 11.25 C-7 9 -7 9 -8.0625 5.9375 C-8 3 -8 3 -6.875 1.125 C-4.36737712 -0.37957373 -2.87879197 -0.4318188 0 0 Z " fill="#835C49" transform="translate(213,277)"/>
<path d="M0 0 C0.66 0 1.32 0 2 0 C3.85742252 4.72798461 4.24255589 8.68485808 4.1875 13.75 C4.17783203 15.72226563 4.17783203 15.72226563 4.16796875 17.734375 C4 21 4 21 3 23 C0.53199953 21.84826645 -1.04783565 20.95216435 -3 19 C-3.9013343 12.04684969 -2.86301283 6.32248667 0 0 Z " fill="#FAF9F6" transform="translate(270,123)"/>
<path d="M0 0 C4.29 0 8.58 0 13 0 C11.875 5.625 11.875 5.625 9.93359375 8.55078125 C9.53076172 9.16630859 9.12792969 9.78183594 8.71289062 10.41601562 C8.29201172 11.04185547 7.87113281 11.66769531 7.4375 12.3125 C6.80038086 13.28026367 6.80038086 13.28026367 6.15039062 14.26757812 C5.10733607 15.84973954 4.05462128 17.42552501 3 19 C6.3 19 9.6 19 13 19 C13 19.66 13 20.32 13 21 C8.38 21 3.76 21 -1 21 C0.73388663 16.66528344 2.52386802 13.50529049 5.125 9.6875 C5.84945312 8.61886719 6.57390625 7.55023438 7.3203125 6.44921875 C8.15175781 5.23685547 8.15175781 5.23685547 9 4 C6.03 3.67 3.06 3.34 0 3 C0 2.01 0 1.02 0 0 Z " fill="#845E4B" transform="translate(153,308)"/>
<path d="M0 0 C0.33 0 0.66 0 1 0 C1.04898437 1.07378906 1.09796875 2.14757812 1.1484375 3.25390625 C1.22353398 4.69012642 1.29907876 6.12632319 1.375 7.5625 C1.4059375 8.26697266 1.436875 8.97144531 1.46875 9.69726562 C1.72952558 14.41295741 2.54658123 18.50385496 4 23 C4.99 22.67 5.98 22.34 7 22 C8.05086948 19.23633753 8.11860688 16.60496259 8.09765625 13.671875 C8.09282227 12.47304688 8.09282227 12.47304688 8.08789062 11.25 C8.07951172 10.425 8.07113281 9.6 8.0625 8.75 C8.05798828 7.90953125 8.05347656 7.0690625 8.04882812 6.203125 C8.03707961 4.13538599 8.01914522 2.06768376 8 0 C8.66 0.33 9.32 0.66 10 1 C10.08703823 4.43734063 10.14040272 7.87439837 10.1875 11.3125 C10.21263672 12.28896484 10.23777344 13.26542969 10.26367188 14.27148438 C10.27333984 15.20927734 10.28300781 16.14707031 10.29296875 17.11328125 C10.3086792 17.97735596 10.32438965 18.84143066 10.34057617 19.73168945 C10 22 10 22 8.6105957 23.81323242 C7 25 7 25 4.9375 24.875 C3 24 3 24 1 21 C0.2265625 22.0209375 0.2265625 22.0209375 -0.5625 23.0625 C-3 25 -3 25 -6.375 25 C-10.41727447 23.8848898 -12.68899653 22.50344165 -16 20 C-13.38058783 18.25372522 -11.96175123 17.61277612 -9 17 C-9.185625 17.639375 -9.37125 18.27875 -9.5625 18.9375 C-9.7790625 19.9584375 -9.7790625 19.9584375 -10 21 C-8.87465895 22.35618499 -8.87465895 22.35618499 -5.9375 22.0625 C-4.4834375 22.0315625 -4.4834375 22.0315625 -3 22 C-0.74830377 17.43253488 -0.57576021 13.17722773 -0.375 8.1875 C-0.33632813 7.39923828 -0.29765625 6.61097656 -0.2578125 5.79882812 C-0.16411156 3.8662462 -0.08099221 1.93315624 0 0 Z " fill="#8F6C5A" transform="translate(267,266)"/>
<path d="M0 0 C1.32 0 2.64 0 4 0 C4.18175781 0.60328125 4.36351562 1.2065625 4.55078125 1.828125 C5.89367728 6.09784571 7.07132175 9.53883479 10 13 C11.1845131 16.55353929 11.26641894 19.27013478 11 23 C9.625 24.9375 9.625 24.9375 8 26 C7.34 26 6.68 26 6 26 C5.81824219 24.92621094 5.63648438 23.85242188 5.44921875 22.74609375 C5.19575817 21.30981711 4.94182672 19.87362352 4.6875 18.4375 C4.51057617 17.38079102 4.51057617 17.38079102 4.33007812 16.30273438 C3.68469285 12.71174453 2.88838091 9.49826474 1.39453125 6.16015625 C0 3 0 3 0 0 Z " fill="#F4F0EB" transform="translate(272,115)"/>
<path d="M0 0 C3.63 0 7.26 0 11 0 C11 0.99 11 1.98 11 3 C8.03 3 5.06 3 2 3 C2 4.98 2 6.96 2 9 C4.97 9 7.94 9 11 9 C11 9.66 11 10.32 11 11 C8.03 11 5.06 11 2 11 C2 13.64 2 16.28 2 19 C4.97 19 7.94 19 11 19 C11 19.66 11 20.32 11 21 C7.37 21 3.74 21 0 21 C0 14.07 0 7.14 0 0 Z " fill="#825B48" transform="translate(320,308)"/>
<path d="M0 0 C0.33 0.99 0.66 1.98 1 3 C-1.64 3.33 -4.28 3.66 -7 4 C-6.80811844 5.939509 -6.80811844 5.939509 -6 8 C-4.16016576 9.34231442 -4.16016576 9.34231442 -1.9375 10.25 C-1.20402344 10.58515625 -0.47054688 10.9203125 0.28515625 11.265625 C1.13400391 11.62914062 1.13400391 11.62914062 2 12 C2.1875 15.375 2.1875 15.375 2 19 C-1.20380017 21.13586678 -2.01939967 21.23132175 -5.6875 21.125 C-6.49574219 21.10695313 -7.30398438 21.08890625 -8.13671875 21.0703125 C-8.75160156 21.04710937 -9.36648438 21.02390625 -10 21 C-10.33 20.01 -10.66 19.02 -11 18 C-8.03 18 -5.06 18 -2 18 C-1.67 16.68 -1.34 15.36 -1 14 C-1.84884766 13.68869141 -1.84884766 13.68869141 -2.71484375 13.37109375 C-5.00899278 12.40747052 -6.98079168 11.45925979 -9 10 C-10.1875 6.4375 -10.1875 6.4375 -10 3 C-7.87686533 -1.11357342 -4.15216642 -0.23502829 0 0 Z " fill="#835C49" transform="translate(345,308)"/>
<path d="M0 0 C0.66 0 1.32 0 2 0 C2.33 5.61 2.66 11.22 3 17 C5.97 17 8.94 17 12 17 C12.33 11.39 12.66 5.78 13 0 C13.66 0 14.32 0 15 0 C15.10787818 2.77186988 15.18723327 5.53955537 15.25 8.3125 C15.30027344 9.49102539 15.30027344 9.49102539 15.3515625 10.69335938 C15.45012662 16.4840012 15.45012662 16.4840012 13.23828125 19.01953125 C9.53324274 20.64250624 7.04090154 20.38484777 3 20 C0.94300403 18.48479299 0.11342217 17.63313151 -0.34057617 15.09887695 C-0.32486572 14.40238037 -0.30915527 13.70588379 -0.29296875 12.98828125 C-0.28330078 12.23095703 -0.27363281 11.47363281 -0.26367188 10.69335938 C-0.23853516 9.90767578 -0.21339844 9.12199219 -0.1875 8.3125 C-0.17396484 7.51521484 -0.16042969 6.71792969 -0.14648438 5.89648438 C-0.11117089 3.93070033 -0.05736447 1.96526418 0 0 Z " fill="#7B513D" transform="translate(273,309)"/>
<path d="M0 0 C8.14659592 -0.93999184 13.52144818 0.30173223 20.68457031 4.28369141 C26.54795714 7.48264314 32.46514941 8.86020048 39 10 C39 10.33 39 10.66 39 11 C29.19949123 11.44102289 22.96351827 10.39557383 14.625 5.375 C9.86927728 2.61120303 5.43336482 2.12477456 0 2 C0 1.34 0 0.68 0 0 Z " fill="#A98659" transform="translate(215,195)"/>
<path d="M0 0 C8.3984375 -0.1953125 8.3984375 -0.1953125 11 0 C13 2 13 2 13.125 4.625 C13.08375 5.40875 13.0425 6.1925 13 7 C12.34 7 11.68 7 11 7 C10.79375 6.360625 10.5875 5.72125 10.375 5.0625 C9.10461791 2.65074923 9.10461791 2.65074923 5.875 2.25 C4.92625 2.1675 3.9775 2.085 3 2 C3 4.64 3 7.28 3 10 C3.99 10.33 4.98 10.66 6 11 C5.01 11 4.02 11 3 11 C3 13.97 3 16.94 3 20 C2.01 20 1.02 20 0 20 C0 13.4 0 6.8 0 0 Z " fill="#835C4A" transform="translate(240,309)"/>
<path d="M0 0 C3.63 0 7.26 0 11 0 C11 0.99 11 1.98 11 3 C8.03 3 5.06 3 2 3 C2 5.31 2 7.62 2 10 C4.97 10 7.94 10 11 10 C11 10.66 11 11.32 11 12 C8.03 12 5.06 12 2 12 C2 14.97 2 17.94 2 21 C1.34 21 0.68 21 0 21 C0 14.07 0 7.14 0 0 Z " fill="#835C49" transform="translate(258,308)"/>
<path d="M0 0 C5.28 0 10.56 0 16 0 C16 0.99 16 1.98 16 3 C13.69 3 11.38 3 9 3 C9 8.94 9 14.88 9 21 C8.34 21 7.68 21 7 21 C7 15.06 7 9.12 7 3 C4.69 3 2.38 3 0 3 C0 2.01 0 1.02 0 0 Z " fill="#8A6553" transform="translate(186,308)"/>
<path d="M0 0 C0.73605469 0.02255859 1.47210938 0.04511719 2.23046875 0.06835938 C4.02953842 0.12677073 5.82754753 0.21643663 7.625 0.3125 C7.625 0.6425 7.625 0.9725 7.625 1.3125 C20.99 1.8075 20.99 1.8075 34.625 2.3125 C34.625 2.6425 34.625 2.9725 34.625 3.3125 C33.41440918 3.33231934 32.20381836 3.35213867 30.95654297 3.37255859 C26.4499896 3.44883336 21.94374991 3.5375168 17.4375 3.62988281 C15.48997202 3.66808233 13.54237565 3.70295075 11.59472656 3.734375 C8.78946554 3.78022196 5.98467161 3.83818366 3.1796875 3.8984375 C1.88090164 3.91576431 1.88090164 3.91576431 0.55587769 3.93344116 C-4.17322675 4.04797811 -7.88312123 4.69257772 -12.375 6.3125 C-13.035 5.9825 -13.695 5.6525 -14.375 5.3125 C-9.59265044 0.5226073 -6.66992981 -0.39199407 0 0 Z " fill="#B69973" transform="translate(221.375,163.6875)"/>
<path d="M0 0 C2.625 1.6875 2.625 1.6875 3.625 4.6875 C2.635 6.1725 2.635 6.1725 1.625 7.6875 C1.356875 7.048125 1.08875 6.40875 0.8125 5.75 C-0.26167752 3.35618314 -0.26167752 3.35618314 -3.375 2.6875 C-6.91678598 2.43746036 -6.91678598 2.43746036 -10.375 2.6875 C-12.66228734 4.52633881 -12.66228734 4.52633881 -12.5 7.3125 C-12.45875 8.09625 -12.4175 8.88 -12.375 9.6875 C-13.365 9.3575 -14.355 9.0275 -15.375 8.6875 C-15.478125 7.90375 -15.58125 7.12 -15.6875 6.3125 C-16.15095022 3.35704819 -16.15095022 3.35704819 -19.375 1.6875 C-12.62779059 -0.88286549 -7.04570297 -2.7399956 0 0 Z " fill="#AB885D" transform="translate(291.375,111.3125)"/>
<path d="M0 0 C0.66 0 1.32 0 2 0 C3.4216319 3.3171411 4.39009109 6.44219804 5 10 C2.03 10 -0.94 10 -4 10 C-4.33 11.98 -4.66 13.96 -5 16 C-5.99 16 -6.98 16 -8 16 C-7.57316761 14.41375765 -7.13303842 12.8310902 -6.6875 11.25 C-6.32205078 9.92742187 -6.32205078 9.92742187 -5.94921875 8.578125 C-4.96807895 5.91330085 -3.906176 4.09728362 -2 2 C-1.34 2 -0.68 2 0 2 C0 1.34 0 0.68 0 0 Z " fill="#8C6957" transform="translate(176,313)"/>
<path d="M0 0 C2.8992226 0.46761655 3.86675182 0.86675182 6 3 C6.375 5.4375 6.375 5.4375 6 8 C3.62130509 10.65315971 2.32875347 10.98103345 -1.25 11.1875 C-2.1575 11.125625 -3.065 11.06375 -4 11 C-3.67 8.69 -3.34 6.38 -3 4 C-2.67 4.99 -2.34 5.98 -2 7 C-1.34 7 -0.68 7 0 7 C-0.185625 6.030625 -0.37125 5.06125 -0.5625 4.0625 C-0.706875 3.051875 -0.85125 2.04125 -1 1 C-0.67 0.67 -0.34 0.34 0 0 Z " fill="#F8F6F5" transform="translate(228,278)"/>
<path d="M0 0 C3.3 0 6.6 0 10 0 C10 2.31 10 4.62 10 7 C6.7 7 3.4 7 0 7 C0 4.69 0 2.38 0 0 Z " fill="#F2EDE6" transform="translate(232,157)"/>
<path d="M0 0 C1.32 0.66 2.64 1.32 4 2 C3.01 2 2.02 2 1 2 C1 2.99 1 3.98 1 5 C2.65 4.34 4.3 3.68 6 3 C5.78125 4.90625 5.78125 4.90625 5 7 C2.71402389 8.01989703 0.4617407 8.5092016 -1.96875 9.09375 C-2.97421875 9.54234375 -2.97421875 9.54234375 -4 10 C-4.70711648 11.95346008 -4.70711648 11.95346008 -5 14 C-5.66 14.66 -6.32 15.32 -7 16 C-7.99 12.37 -8.98 8.74 -10 5 C-8.02 5.66 -6.04 6.32 -4 7 C-1.90493748 3.55291141 -1.90493748 3.55291141 0 0 Z " fill="#A68354" transform="translate(290,120)"/>
<path d="M0 0 C0.33 1.32 0.66 2.64 1 4 C-0.98 4.99 -2.96 5.98 -5 7 C-5 13.6 -5 20.2 -5 27 C-5.33 27 -5.66 27 -6 27 C-6 20.73 -6 14.46 -6 8 C-10.29 8 -14.58 8 -19 8 C-15.60810477 4.60810477 -14.63603649 4.54271879 -10.0625 4 C-5.78147591 3.49073319 -3.25682025 2.88797555 0 0 Z " fill="#B1946D" transform="translate(264,199)"/>
<path d="M0 0 C0.33 0 0.66 0 1 0 C1.33 4.62 1.66 9.24 2 14 C9.26 14 16.52 14 24 14 C24 14.99 24 15.98 24 17 C23.34 17.33 22.68 17.66 22 18 C21.34 17.67 20.68 17.34 20 17 C17.12089412 16.76725791 14.25853505 16.58027243 11.375 16.4375 C10.57320312 16.39431641 9.77140625 16.35113281 8.9453125 16.30664062 C6.9637489 16.20048543 4.98189729 16.09973145 3 16 C3 16.66 3 17.32 3 18 C1.68 17.34 0.36 16.68 -1 16 C-1.02685095 13.52076199 -1.04676547 11.0418116 -1.0625 8.5625 C-1.07506836 7.50192383 -1.07506836 7.50192383 -1.08789062 6.41992188 C-1.09653588 4.61306441 -1.05220011 2.80612397 -1 1 C-0.67 0.67 -0.34 0.34 0 0 Z " fill="#A68152" transform="translate(225,139)"/>
<path d="M0 0 C-1.75 3.875 -1.75 3.875 -4 5 C-5.57291208 5.09003966 -7.14961575 5.11756509 -8.72509766 5.11352539 C-9.70596344 5.11344986 -10.68682922 5.11337433 -11.69741821 5.11329651 C-12.75891083 5.10813522 -13.82040344 5.10297394 -14.9140625 5.09765625 C-15.99883881 5.0962413 -17.08361511 5.09482635 -18.20126343 5.09336853 C-21.67587 5.08775802 -25.15041281 5.07520372 -28.625 5.0625 C-30.97656157 5.05748635 -33.32812415 5.05292321 -35.6796875 5.04882812 C-41.45314686 5.03778518 -47.22656888 5.02103679 -53 5 C-53 4.67 -53 4.34 -53 4 C-52.15221733 3.99120064 -52.15221733 3.99120064 -51.28730774 3.98222351 C-45.3983231 3.91822928 -39.5098819 3.83379416 -33.62133789 3.73754883 C-31.42447073 3.70431945 -29.2275186 3.67628134 -27.03051758 3.65356445 C-23.87023757 3.61998246 -20.71073479 3.56766366 -17.55078125 3.51171875 C-16.57039383 3.50532883 -15.59000641 3.4989389 -14.57991028 3.49235535 C-9.16378439 3.37589832 -4.64975887 0 0 0 Z " fill="#9F7743" transform="translate(266,234)"/>
<path d="M0 0 C0.66 0 1.32 0 2 0 C2.00386719 1.21236328 2.00386719 1.21236328 2.0078125 2.44921875 C2.02529052 8.52886332 2.02529052 8.52886332 4.40234375 13.91015625 C6.20050442 15.42592669 6.20050442 15.42592669 9 17 C9.33 16.34 9.66 15.68 10 15 C10 15.99 10 16.98 10 18 C9.34 18 8.68 18 8 18 C8 18.66 8 19.32 8 20 C3.94524656 18.49823947 0.94944266 15.83650315 -1 12 C-1.56048286 7.93961304 -1.86458199 3.72916397 0 0 Z " fill="#AF8F65" transform="translate(264,129)"/>
<path d="M0 0 C0.66 0.33 1.32 0.66 2 1 C-1.27593729 5.33579936 -3.75533173 8.07338717 -9 10 C-12.375 10.1875 -12.375 10.1875 -15 10 C-15 9.34 -15 8.68 -15 8 C-12.48046875 6.30859375 -12.48046875 6.30859375 -9.1875 4.4375 C-7.56908203 3.50744141 -7.56908203 3.50744141 -5.91796875 2.55859375 C-3 1 -3 1 0 0 Z " fill="#F2EEE8" transform="translate(290,168)"/>
<path d="M0 0 C2.8992226 0.46761655 3.86675182 0.86675182 6 3 C6.125 6.625 6.125 6.625 6 10 C3.32142828 9.63803085 1.39019086 9.26012724 -0.875 7.75 C-2 6 -2 6 -1.75 3.375 C-1 1 -1 1 0 0 Z " fill="#F8F6F4" transform="translate(209,278)"/>
<path d="M0 0 C2.33294775 -0.04241723 4.66702567 -0.04092937 7 0 C8 1 8 1 8.1875 3.4375 C8 6 8 6 6 8 C2.875 8.125 2.875 8.125 0 8 C0 5.36 0 2.72 0 0 Z " fill="#F2EEEC" transform="translate(209,311)"/>
<path d="M0 0 C2.475 0.99 2.475 0.99 5 2 C5 2.99 5 3.98 5 5 C2.12861214 7.87138786 -1.34734288 8.97667005 -5.09375 10.3046875 C-7.1506905 11.05496498 -9.07515633 11.95737634 -11 13 C-11 11.68 -11 10.36 -11 9 C-7.64212249 6.43221132 -4.0185613 5.21491388 0 4 C0 2.68 0 1.36 0 0 Z " fill="#EEE7DF" transform="translate(297,121)"/>
<path d="M0 0 C0.66 0 1.32 0 2 0 C2.29254918 4.97333608 2.16504232 8.0436971 -1 12 C-3.79451832 14.19569297 -5.06113948 13.99481869 -8.6875 13.6875 C-12 13 -12 13 -13 12 C-13.25 8.625 -13.25 8.625 -13 5 C-12.01 4.01 -11.02 3.02 -10 2 C-10.66 4.97 -11.32 7.94 -12 11 C-6.85117006 11.42140556 -6.85117006 11.42140556 -2.0625 10 C-0.35699294 6.78963377 -0.29565596 3.60700273 0 0 Z " fill="#927160" transform="translate(305,277)"/>
<path d="M0 0 C3.91280648 0.26085377 5.73910671 0.78654185 8.75 3.25 C8.75 4.24 8.75 5.23 8.75 6.25 C6.21710672 5.74342134 3.69745599 5.23718439 1.1875 4.625 C-1.32655067 4.23822297 -2.86012187 4.45337396 -5.25 5.25 C-4.13636364 0.31818182 -4.13636364 0.31818182 0 0 Z " fill="#F1ECE6" transform="translate(284.25,112.75)"/>
<path d="M0 0 C0 0.99 0 1.98 0 3 C-0.99 3.495 -0.99 3.495 -2 4 C-1.01 5.485 -1.01 5.485 0 7 C-6.75 8.125 -6.75 8.125 -9 7 C-8.75 4.625 -8.75 4.625 -8 2 C-5.10189884 -0.09862498 -3.71621139 0 0 0 Z " fill="#F6F3F1" transform="translate(254,278)"/>
<path d="M0 0 C0 7.92 0 15.84 0 24 C-0.99 24 -1.98 24 -3 24 C-2.67 16.74 -2.34 9.48 -2 2 C-2.66 1.67 -3.32 1.34 -4 1 C-1 0 -1 0 0 0 Z " fill="#A07844" transform="translate(261,204)"/>
<path d="M0 0 C2.11790763 4.23581527 2.26982837 6.29270548 2.25 10.9375 C2.25773437 12.74541016 2.25773437 12.74541016 2.265625 14.58984375 C2.0123664 17.84123725 1.39643877 20.07966971 0 23 C-0.66 23 -1.32 23 -2 23 C-2.33 21.35 -2.66 19.7 -3 18 C-2.34 18 -1.68 18 -1 18 C-0.505 9.09 -0.505 9.09 0 0 Z " fill="#A27A46" transform="translate(275,129)"/>
<path d="M0 0 C1.99954746 -0.04254356 4.00041636 -0.04080783 6 0 C7 1 7 1 7.125 3.5 C7 6 7 6 6 7 C4.00041636 7.04080783 1.99954746 7.04254356 0 7 C0 4.69 0 2.38 0 0 Z " fill="#FDFDFC" transform="translate(243,311)"/>
<path d="M0 0 C1.32 0 2.64 0 4 0 C4.33 0.99 4.66 1.98 5 3 C4.01 3 3.02 3 2 3 C2 8.61 2 14.22 2 20 C1.34 20 0.68 20 0 20 C0 13.4 0 6.8 0 0 Z " fill="#774D38" transform="translate(294,309)"/>
<path d="M0 0 C1.32 0.33 2.64 0.66 4 1 C4 5.95 4 10.9 4 16 C3.01 15.67 2.02 15.34 1 15 C0.67 10.05 0.34 5.1 0 0 Z " fill="#AC8B5E" transform="translate(247,138)"/>
<path d="M0 0 C1.32 0 2.64 0 4 0 C4 6.6 4 13.2 4 20 C3.34 20 2.68 20 2 20 C2 14.06 2 8.12 2 2 C1.34 2 0.68 2 0 2 C0 1.34 0 0.68 0 0 Z " fill="#764B36" transform="translate(310,309)"/>
<path d="M0 0 C4.29 0 8.58 0 13 0 C12.67 1.65 12.34 3.3 12 5 C11.34 4.67 10.68 4.34 10 4 C8.29636178 3.77377919 6.58671299 3.59111527 4.875 3.4375 C3.96492187 3.35371094 3.05484375 3.26992188 2.1171875 3.18359375 C1.41851562 3.12300781 0.71984375 3.06242187 0 3 C0 2.01 0 1.02 0 0 Z " fill="#927060" transform="translate(153,308)"/>
<path d="M0 0 C2.91589609 4.37384413 4.30254716 7.70542471 4 13 C3.67 13 3.34 13 3 13 C2.67 16.3 2.34 19.6 2 23 C1.67 23 1.34 23 1 23 C0.93941406 22.05898437 0.87882812 21.11796875 0.81640625 20.1484375 C0.73261719 18.90320313 0.64882813 17.65796875 0.5625 16.375 C0.44068359 14.53035156 0.44068359 14.53035156 0.31640625 12.6484375 C0.0319654 9.36858863 -0.27193179 6.21121477 -1 3 C-1.66 2.67 -2.32 2.34 -3 2 C-2.01 2 -1.02 2 0 2 C0 1.34 0 0.68 0 0 Z " fill="#B99B77" transform="translate(273,120)"/>
<path d="M0 0 C0.66 0.66 1.32 1.32 2 2 C1.875 5.5 1.875 5.5 1 9 C-0.98 9.99 -0.98 9.99 -3 11 C-2.67 8.03 -2.34 5.06 -2 2 C-4.31 1.67 -6.62 1.34 -9 1 C-9 0.67 -9 0.34 -9 0 C-5.64961743 -0.83759564 -3.2704774 -1.24052591 0 0 Z " fill="#805845" transform="translate(218,310)"/>
<path d="M0 0 C0.66 0.99 1.32 1.98 2 3 C1.25 5.875 1.25 5.875 0 9 C-0.37125 9.94875 -0.7425 10.8975 -1.125 11.875 C-1.41375 12.57625 -1.7025 13.2775 -2 14 C-3.32 13.67 -4.64 13.34 -6 13 C-4.31326082 8.50202887 -2.18326108 4.27113698 0 0 Z " fill="#AE8E63" transform="translate(272,149)"/>
<path d="M0 0 C1.66611905 -0.042721 3.33382885 -0.04063832 5 0 C6 1 6 1 6.0625 3.5625 C6.041875 4.366875 6.02125 5.17125 6 6 C4.02 6.99 4.02 6.99 2 8 C0.4375 5.6875 0.4375 5.6875 -1 3 C-0.67 2.01 -0.34 1.02 0 0 Z " fill="#F2EDE6" transform="translate(282,120)"/>
<path d="M0 0 C-1.95490358 1.95490358 -3.35394423 2.76698301 -5.8125 3.9375 C-8.9802089 5.47807974 -12.00984753 7.13115471 -15 9 C-12.326168 1.7806536 -7.29885584 -0.72988558 0 0 Z " fill="#EEE8DF" transform="translate(289,165)"/>
<path d="M0 0 C0.99 0.33 1.98 0.66 3 1 C4.1875 4.5625 4.1875 4.5625 5 8 C4.01 8 3.02 8 2 8 C2 7.01 2 6.02 2 5 C1.34 5 0.68 5 0 5 C0 5.66 0 6.32 0 7 C-0.99 7.33 -1.98 7.66 -3 8 C-1.125 1.125 -1.125 1.125 0 0 Z " fill="#8C6856" transform="translate(176,308)"/>
<path d="M0 0 C2.5625 0.375 2.5625 0.375 4.375 2.375 C4.766875 3.035 5.15875 3.695 5.5625 4.375 C4.985 4.024375 4.4075 3.67375 3.8125 3.3125 C1.20448224 2.22582593 0.16832371 2.44434867 -2.4375 3.375 C-2.2725 4.138125 -2.1075 4.90125 -1.9375 5.6875 C-1.4375 8.375 -1.4375 8.375 -1.4375 11.375 C-3.5 9.6875 -3.5 9.6875 -5.4375 7.375 C-5.24194089 3.26825863 -4.37516992 0.67310306 0 0 Z " fill="#926F5F" transform="translate(210.4375,276.625)"/>
<path d="M0 0 C1.93742341 -0.02703381 3.87495479 -0.04641125 5.8125 -0.0625 C6.89144531 -0.07410156 7.97039062 -0.08570313 9.08203125 -0.09765625 C12 0 12 0 15 1 C15 1.66 15 2.32 15 3 C10.05 2.67 5.1 2.34 0 2 C0 1.34 0 0.68 0 0 Z " fill="#A57F4D" transform="translate(215,195)"/>
<path d="M0 0 C1.45339206 5.0868722 0.82515179 9.5928013 0 14.75 C-0.185625 15.92046875 -0.37125 17.0909375 -0.5625 18.296875 C-0.7790625 19.63492188 -0.7790625 19.63492188 -1 21 C-1.33 21 -1.66 21 -2 21 C-3.70159453 6.21867882 -3.70159453 6.21867882 0 0 Z " fill="#BAA07E" transform="translate(268,120)"/>
<path d="M0 0 C0.99 0.33 1.98 0.66 3 1 C1.35 5.29 -0.3 9.58 -2 14 C-4 10 -4 10 -3.3203125 7.421875 C-2.92585938 6.54015625 -2.53140625 5.6584375 -2.125 4.75 C-1.73570312 3.85796875 -1.34640625 2.9659375 -0.9453125 2.046875 C-0.63335937 1.37140625 -0.32140625 0.6959375 0 0 Z " fill="#886250" transform="translate(309,311)"/>
<path d="M0 0 C1.134375 0.020625 2.26875 0.04125 3.4375 0.0625 C3.7675 1.0525 4.0975 2.0425 4.4375 3.0625 C0.8075 3.7225 -2.8225 4.3825 -6.5625 5.0625 C-4.06692478 0.07134956 -4.06692478 0.07134956 0 0 Z " fill="#8D6957" transform="translate(341.5625,307.9375)"/>
<path d="M0 0 C1.09570312 0.10183594 2.19140625 0.20367187 3.3203125 0.30859375 C4.16335937 0.39238281 5.00640625 0.47617187 5.875 0.5625 C5.875 1.2225 5.875 1.8825 5.875 2.5625 C1.255 2.5625 -3.365 2.5625 -8.125 2.5625 C-8.125 1.9025 -8.125 1.2425 -8.125 0.5625 C-5.28943413 -0.85528293 -3.1341294 -0.30007622 0 0 Z " fill="#794F3A" transform="translate(160.125,326.4375)"/>
<path d="M0 0 C0.33 0 0.66 0 1 0 C1.03738281 0.84304687 1.07476562 1.68609375 1.11328125 2.5546875 C1.17902344 3.65039062 1.24476563 4.74609375 1.3125 5.875 C1.37050781 6.96554688 1.42851562 8.05609375 1.48828125 9.1796875 C1.74158203 10.57574219 1.74158203 10.57574219 2 12 C2.99 12.66 3.98 13.32 5 14 C5 14.99 5 15.98 5 17 C1.125 15.125 1.125 15.125 0 14 C-0.07271741 11.64686445 -0.08370868 9.29166332 -0.0625 6.9375 C-0.05347656 5.64714844 -0.04445312 4.35679687 -0.03515625 3.02734375 C-0.02355469 2.02832031 -0.01195312 1.02929688 0 0 Z " fill="#AA885A" transform="translate(212,215)"/>
<path d="M0 0 C1.32 0.66 2.64 1.32 4 2 C3.01 2 2.02 2 1 2 C1 2.99 1 3.98 1 5 C2.65 4.34 4.3 3.68 6 3 C5.67 4.32 5.34 5.64 5 7 C3.35 7 1.7 7 0 7 C-1.125 2.25 -1.125 2.25 0 0 Z " fill="#A47C46" transform="translate(290,120)"/>
<path d="M0 0 C-0.66 1.65 -1.32 3.3 -2 5 C-2.99 5 -3.98 5 -5 5 C-5 4.34 -5 3.68 -5 3 C-5.99 2.67 -6.98 2.34 -8 2 C-4.77208445 -0.1519437 -3.71599191 -0.20086443 0 0 Z " fill="#A47E49" transform="translate(297,164)"/>
<path d="M0 0 C-0.495 0.391875 -0.99 0.78375 -1.5 1.1875 C-3.45593143 3.55091715 -3.24207973 5.01435003 -3 8 C-3.99 7.67 -4.98 7.34 -6 7 C-6.33 4.69 -6.66 2.38 -7 0 C-2.25 -1.125 -2.25 -1.125 0 0 Z " fill="#A37E4B" transform="translate(282,113)"/>
<path d="M0 0 C0.66 0 1.32 0 2 0 C2.33 2.31 2.66 4.62 3 7 C1.35 7 -0.3 7 -2 7 C-1.34 4.69 -0.68 2.38 0 0 Z " fill="#F4F0EF" transform="translate(176,313)"/>
<path d="M0 0 C0.99 0.33 1.98 0.66 3 1 C2.34 2.32 1.68 3.64 1 5 C-1.31 5 -3.62 5 -6 5 C-6 4.34 -6 3.68 -6 3 C-5.195625 2.87625 -4.39125 2.7525 -3.5625 2.625 C-2.716875 2.41875 -1.87125 2.2125 -1 2 C-0.67 1.34 -0.34 0.68 0 0 Z " fill="#A98558" transform="translate(257,227)"/>
<path d="M0 0 C2.46800047 1.15173355 4.04783565 2.04783565 6 4 C5.34 5.32 4.68 6.64 4 8 C3.566875 7.38125 3.13375 6.7625 2.6875 6.125 C1.00259517 3.7802755 1.00259517 3.7802755 -2 2 C-1.34 2 -0.68 2 0 2 C0 1.34 0 0.68 0 0 Z " fill="#AE8E65" transform="translate(260,165)"/>
<path d="M0 0 C0.33 0 0.66 0 1 0 C1.1953125 1.98567708 1.390625 3.97135417 1.5859375 5.95703125 C1.92665391 8.29988142 1.92665391 8.29988142 4 11 C2.68 11.99 1.36 12.98 0 14 C0 9.38 0 4.76 0 0 Z " fill="#B89D7A" transform="translate(277,133)"/>
<path d="M0 0 C-2.97 1.65 -5.94 3.3 -9 5 C-9 3.68 -9 2.36 -9 1 C-3.375 -1.125 -3.375 -1.125 0 0 Z " fill="#F5F1EC" transform="translate(295,129)"/>
<path d="M0 0 C2.475 0.495 2.475 0.495 5 1 C4.67 2.98 4.34 4.96 4 7 C3.01 6.67 2.02 6.34 1 6 C0.67 4.02 0.34 2.04 0 0 Z " fill="#7D5541" transform="translate(301,322)"/>
<path d="M0 0 C0.99 0 1.98 0 3 0 C6 4.22222222 6 4.22222222 6 7 C5.01 7 4.02 7 3 7 C0 2.77777778 0 2.77777778 0 0 Z " fill="#845E4B" transform="translate(248,322)"/>
<path d="M0 0 C1.70884005 1.62339805 3.37446717 3.29319053 5 5 C5 5.66 5 6.32 5 7 C3.125 6.75 3.125 6.75 1 6 C-0.3125 4.0625 -0.3125 4.0625 -1 2 C-0.67 1.34 -0.34 0.68 0 0 Z " fill="#A88759" transform="translate(208,232)"/>
<path d="M0 0 C1.70884005 1.62339805 3.37446717 3.29319053 5 5 C5 5.66 5 6.32 5 7 C3.35 6.67 1.7 6.34 0 6 C-0.38218767 4.34385343 -0.71395102 2.67542976 -1 1 C-0.67 0.67 -0.34 0.34 0 0 Z " fill="#7B523E" transform="translate(336,312)"/>
<path d="M0 0 C2.31 0 4.62 0 7 0 C6.67 1.32 6.34 2.64 6 4 C5.34 3.34 4.68 2.68 4 2 C1.89179203 2.3185177 1.89179203 2.3185177 0 3 C0 2.01 0 1.02 0 0 Z " fill="#C3AA89" transform="translate(291,122)"/>
<path d="M0 0 C0.33 0.99 0.66 1.98 1 3 C0.67 3.66 0.34 4.32 0 5 C1.65 5 3.3 5 5 5 C5.33 4.34 5.66 3.68 6 3 C6 3.99 6 4.98 6 6 C3.69 6 1.38 6 -1 6 C-1.625 4.125 -1.625 4.125 -2 2 C-1.34 1.34 -0.68 0.68 0 0 Z " fill="#947362" transform="translate(174,315)"/>
<path d="M0 0 C-0.75 1.9375 -0.75 1.9375 -2 4 C-4.125 4.75 -4.125 4.75 -6 5 C-5.6875 3.0625 -5.6875 3.0625 -5 1 C-2 0 -2 0 0 0 Z " fill="#A8865A" transform="translate(266,234)"/>
<path d="M0 0 C0.33 0 0.66 0 1 0 C0.75 3.375 0.75 3.375 0 7 C-2.0625 8.4375 -2.0625 8.4375 -4 9 C-3.625 7.0625 -3.625 7.0625 -3 5 C-2.34 4.67 -1.68 4.34 -1 4 C-0.34786708 1.97536745 -0.34786708 1.97536745 0 0 Z " fill="#8E6B5A" transform="translate(219,312)"/>
</svg>
